<svg width="518" height="1023" viewBox="0 0 518 1023" fill="none" xmlns="http://www.w3.org/2000/svg">
<path d="M330.783 1022.92H76.0331V494.607H0V390.355L79.1685 356.65V288.455C79.1685 235.676 86.4843 189.952 101.116 151.282C115.748 112.613 136.128 82.5651 162.256 61.14C188.907 39.7148 218.17 24.2992 250.047 14.8931C282.446 4.96437 318.503 0 358.218 0C393.752 0 427.196 4.70307 458.55 14.1092C489.904 23.5154 509.5 32.1377 517.338 39.9762L487.552 159.121C462.469 146.579 436.602 140.308 409.951 140.308C403.158 140.308 396.887 140.831 391.139 141.876C350.902 148.147 330.783 182.375 330.783 244.56V356.65H431.899V494.607H330.783V1022.92Z" fill="#FA7316"/>
</svg>
