<svg width="2253" height="1044" viewBox="0 0 2253 1044" fill="none" xmlns="http://www.w3.org/2000/svg">
<path d="M1975.52 1026.84V519.69L1928.49 490.687V406.816L2097.01 360.569H2227.92V1026.84H1975.52ZM2089.18 288.455L1960.63 159.12V131.686L2089.18 3.13501H2118.96L2253 131.686V159.12L2118.96 288.455H2089.18Z" fill="#FA7316"/>
<path d="M1669.65 1026.84L1639.08 925.722C1634.9 933.038 1629.93 940.354 1624.18 947.67C1618.96 954.986 1610.34 964.392 1598.32 975.888C1586.3 986.862 1573.5 996.53 1559.91 1004.89C1546.32 1013.25 1529.34 1020.57 1508.96 1026.84C1488.58 1033.11 1467.15 1036.24 1444.68 1036.24C1358.46 1036.24 1295.23 1006.72 1254.99 947.67C1214.76 888.62 1194.64 806.578 1194.64 701.542C1194.64 635.699 1204.04 577.172 1222.85 525.961C1241.67 474.227 1271.19 432.683 1311.43 401.329C1351.67 369.975 1400.27 354.298 1457.22 354.298C1491.19 354.298 1521.5 357.956 1548.15 365.272C1574.8 372.588 1597.79 381.472 1617.13 391.923V154.418L1530.91 125.415V39.1923L1808.39 0H1869.53V1026.84H1669.65ZM1559.12 882.611C1568.53 882.611 1578.2 881.043 1588.13 877.908C1598.06 874.25 1607.72 869.285 1617.13 863.014V468.74C1600.93 465.082 1586.04 463.253 1572.45 463.253C1502.95 463.776 1467.94 517.338 1467.41 623.941V733.68C1467.41 782.801 1476.04 819.903 1493.28 844.986C1510.53 870.069 1532.47 882.611 1559.12 882.611Z" fill="#FA7316"/>
<path d="M882.219 922.586C879.083 929.902 872.551 939.569 862.622 951.588C853.216 963.607 840.675 976.933 824.998 991.565C809.321 1005.67 789.986 1017.69 766.993 1027.62C744 1038.07 720.746 1043.3 697.231 1043.3C623.549 1043.3 570.77 1021.35 538.894 977.455C507.54 933.56 491.863 860.401 491.863 757.978V478.929L464.429 450.711V360.569H748.965V807.361C748.442 830.876 752.361 848.382 760.722 859.879C769.084 870.852 784.238 876.339 806.186 876.339C809.321 876.339 812.195 876.339 814.808 876.339C817.421 875.817 820.033 875.294 822.646 874.772C825.259 873.726 827.349 872.943 828.917 872.42C831.007 871.897 833.359 871.114 835.972 870.068C838.585 868.501 840.675 867.194 842.242 866.149C843.81 865.104 845.9 863.798 848.513 862.23C851.126 860.14 852.955 858.572 854 857.527C855.568 856.482 857.658 854.914 860.271 852.824C863.406 850.211 865.758 848.382 867.326 847.337V478.929L824.998 450.711V360.569H1123.64V1026.84H906.518L882.219 922.586Z" fill="#FA7316"/>
<path d="M330.783 1026.84H76.0331V498.526H0V394.274L79.1685 360.569V292.374C79.1685 239.595 86.4843 193.871 101.116 155.201C115.748 116.532 136.128 86.4841 162.256 65.0589C188.907 43.6338 218.17 28.2182 250.047 18.8121C282.446 8.88332 318.503 3.91895 358.218 3.91895C393.752 3.91895 427.196 8.62201 458.55 18.0282C489.904 27.4343 509.5 36.0566 517.338 43.8951L487.552 163.04C462.469 150.498 436.602 144.227 409.951 144.227C403.158 144.227 396.887 144.75 391.139 145.795C350.902 152.066 330.783 186.294 330.783 248.479V360.569H431.899V498.526H330.783V1026.84Z" fill="#FA7316"/>
</svg>
